<svg xmlns="http://www.w3.org/2000/svg" width="130.746" height="46.916" viewBox="0 0 130.746 46.916">
  <g id="Records_icon_6" data-name="Records icon 6" transform="translate(0.508 0.489)">
    <path id="Path_656" data-name="Path 656" d="M1302.031,426.074s1.168,3.447,2.161,3.564,3.318-9.484,3.564-10.925a15.043,15.043,0,0,0,0-4.148l-7.654,2.221Z" transform="translate(-1183.688 -389.857)" fill="#fff" stroke="#36393a" stroke-miterlimit="10" stroke-width="1"/>
    <path id="Path_657" data-name="Path 657" d="M1297.749,425.955s1.636,5.083,2.454,5.258,2.094-4.783,2.4-6.251c.3-1.435,2.495-9.27,2.378-10.73s-7.87,3.6-7.87,3.6Z" transform="translate(-1183.088 -389.737)" fill="#fff" stroke="#36393a" stroke-miterlimit="10" stroke-width="1"/>
    <path id="Path_658" data-name="Path 658" d="M1289.581,424.161s.234,8.705,4.557,8.588c1.231-.134,1.928,0,5.959-16.883l-8.355-.936Z" transform="translate(-1181.58 -389.93)" fill="#fff" stroke="#36393a" stroke-miterlimit="10" stroke-width="1"/>
    <path id="Path_659" data-name="Path 659" d="M1274.953,421.255s3.669,9.27,4.849,10.691a3.74,3.74,0,0,0,2.681,1.6c.7-.058,2.987-2.065,3.863-5.512s2.395-12.444,2.395-12.444l-14.138.468Z" transform="translate(-1178.578 -390.062)" fill="#fff" stroke="#36393a" stroke-miterlimit="10" stroke-width="1"/>
    <path id="Path_660" data-name="Path 660" d="M1258.194,419.525s1.87,7.3,2.688,9.464a7.051,7.051,0,0,0,3.1,3.973c1.519,1.051,4.5,2.629,6.251,2.22s2.479-2.369,2.746-3.389c.315-1.2,2.571-14.138,2.045-16.008s-3.972-3.8-3.972-3.8Z" transform="translate(-1175.29 -389.34)" fill="#fff" stroke="#36393a" stroke-miterlimit="10" stroke-width="1"/>
    <path id="Path_661" data-name="Path 661" d="M1237.942,417.424s1.737,7.323,2.643,10.042,2.265,6.342,5.21,6.871,5.285-.377,5.738-2.643,3.926-11.93,3.776-13.289-2.365-3.774-3.724-4.755-4.2-2.72-6.7-2.644S1237.942,417.424,1237.942,417.424Z" transform="translate(-1171.231 -389.143)" fill="#fff" stroke="#36393a" stroke-miterlimit="10" stroke-width="1"/>
    <path id="Path_662" data-name="Path 662" d="M1186.371,416.749s.473,6.565,1.447,8.9a8.543,8.543,0,0,0,5.588,4.983c2.539.554,11.668.554,13.962-1.826a10.774,10.774,0,0,0,3.029-5.539c.432-1.568,1.885-5.7,1.206-7.132s-6.871-4-9.891-3.85S1186.371,416.749,1186.371,416.749Z" transform="translate(-1160.896 -389.399)" fill="#fff" stroke="#36393a" stroke-miterlimit="10" stroke-width="1"/>
    <path id="Path_663" data-name="Path 663" d="M1218.029,416.969s1.1,4.961,2.24,8.533,2,7.072,5.5,7,4.93-1.643,5.573-4.358,1.857-5.644,2.286-7.287.786-5.144.214-5.93-7.858-3.071-7.858-3.071Z" transform="translate(-1167.241 -389.314)" fill="#fff" stroke="#36393a" stroke-miterlimit="10" stroke-width="1"/>
    <path id="Path_664" data-name="Path 664" d="M1157.615,414.953a47.669,47.669,0,0,0-.529,6.342,12.474,12.474,0,0,0,2.781,5.664c2.045,2.332,8.428,3.734,12.882,2.978s8.347-9.775,8.347-10.152-1.888-4.53-2.341-4.757a42.9,42.9,0,0,0-4.606-1.283C1173.849,413.745,1157.615,414.953,1157.615,414.953Z" transform="translate(-1155.025 -389.692)" fill="#fff" stroke="#36393a" stroke-miterlimit="10" stroke-width="1"/>
    <path id="Path_665" data-name="Path 665" d="M1300.29,391.047s0-6.442,1.253-7.337,12.437,11.542,11.9,23c0,0,0,2.505-3.042,2.684a15.589,15.589,0,0,0-4.384.716Z" transform="translate(-1183.726 -383.664)" fill="#fff" stroke="#36393a" stroke-miterlimit="10" stroke-width="1"/>
    <path id="Path_666" data-name="Path 666" d="M1154.639,407.433s.911-8.326,7.806-8.326,9.237,1.822,11.449,3.773,3.122,8.847,2.863,9.237-3.528,4.574-7.546,4.683c-2.08.057-4.816-3.307-6.116-3.359-2.39-.1-1.537,3.064-4.812,2.839C1155.924,416.118,1153.988,412.507,1154.639,407.433Z" transform="translate(-1154.512 -386.759)" fill="#fff" stroke="#36393a" stroke-miterlimit="10" stroke-width="1"/>
    <path id="Path_667" data-name="Path 667" d="M1203.358,404.59s-4.26-7.284-7.062-8.087a11.5,11.5,0,0,0-9.843,2.058c-3.4,2.774-5.01,10.289-3.669,14.5a5.984,5.984,0,0,0,5.906,4.474c2.611-.632,2.949-3.873,4.369-4.076,2.763-.395,3.732,2.045,6.746,1.543,1.679-.28,6.243-5.34,5.617-6.683S1203.358,404.59,1203.358,404.59Z" transform="translate(-1160.083 -386.167)" fill="#fff" stroke="#36393a" stroke-miterlimit="10" stroke-width="1"/>
    <path id="Path_668" data-name="Path 668" d="M1210.931,401.688s-1.968,8.947-.716,10.647,3.221,3.4,5.548,3.222a15.915,15.915,0,0,0,6.417-2.645c.867-.728,2.62-2.635,2.71-4.513s-1.253-4.385-1.879-5.816-2.241-8.022-7.068-8.232C1211.826,394.172,1210.931,401.688,1210.931,401.688Z" transform="translate(-1165.592 -385.805)" fill="#fff" stroke="#36393a" stroke-miterlimit="10" stroke-width="1"/>
    <path id="Path_669" data-name="Path 669" d="M1229.565,399.848s-2.148,9.485.179,11.006,6.621,3.937,8.142,3.669,5.727-5.368,6.8-6.084a2.087,2.087,0,0,0,1.073-2.058c0-.626-2.774-5.368-3.49-8.232s-2.863-7.964-7.516-7.606S1229.565,399.848,1229.565,399.848Z" transform="translate(-1169.371 -385.039)" fill="#fff" stroke="#36393a" stroke-miterlimit="10" stroke-width="1"/>
    <path id="Path_670" data-name="Path 670" d="M1288.205,401.124s.215-7.42.536-9.394c.446-2.739,1.969-6.354,3.848-6.442s6.81,3.919,13.421,20.937c0,0,1.79,4.116-1.163,4.742-2.256.478-6.5.957-8.374,1.156a6.422,6.422,0,0,1-2.368-.181c-1.287-.351-3.062-1.123-3.664-2.765C1289.457,406.494,1288.205,401.124,1288.205,401.124Z" transform="translate(-1181.304 -383.989)" fill="#fff" stroke="#36393a" stroke-miterlimit="10" stroke-width="1"/>
    <path id="Path_671" data-name="Path 671" d="M1272.981,394.364s2.237-8.5,5.906-7.963c1.969.447,3.4,3.847,4.563,7.427s6,14.585,5.548,16.643-3.579,2.236-3.579,2.236l-5.24.443a6.366,6.366,0,0,1-2.645-.336,6.291,6.291,0,0,1-3.389-2.344,35.067,35.067,0,0,1-2.505-5.727A35.016,35.016,0,0,1,1272.981,394.364Z" transform="translate(-1177.981 -384.208)" fill="#fff" stroke="#36393a" stroke-miterlimit="10" stroke-width="1"/>
    <path id="Path_672" data-name="Path 672" d="M1250.3,393.685a45.574,45.574,0,0,1,.179,6.532c-.16,1.065-1.969,4.742-.09,7.158s4.922,7.337,11.1,6.532a8.643,8.643,0,0,0,7.874-7.606c.09-1.789-1.39-8.438-2.6-11.364-1.252-3.042-5.547-9.484-11.006-8.768S1250.3,393.685,1250.3,393.685Z" transform="translate(-1173.555 -384.155)" fill="#fff" stroke="#36393a" stroke-miterlimit="10" stroke-width="1"/>
  </g>
</svg>
