<svg xmlns="http://www.w3.org/2000/svg" width="130.746" height="46.916" viewBox="0 0 130.746 46.916">
  <g id="Records_icon_4" data-name="Records icon 4" transform="translate(0.502 0.489)">
    <path id="Path_673" data-name="Path 673" d="M722.851,426.074s-1.169,3.447-2.162,3.564-3.318-9.484-3.564-10.925a15.046,15.046,0,0,1,0-4.148l7.654,2.221Z" transform="translate(-711.456 -389.857)" fill="#fff" stroke="#36393a" stroke-miterlimit="10" stroke-width="1"/>
    <path id="Path_674" data-name="Path 674" d="M727.114,425.955s-1.636,5.083-2.454,5.258-2.093-4.783-2.4-6.251c-.3-1.435-2.495-9.27-2.378-10.73s7.87,3.6,7.87,3.6Z" transform="translate(-712.039 -389.737)" fill="#fff" stroke="#36393a" stroke-miterlimit="10" stroke-width="1"/>
    <path id="Path_675" data-name="Path 675" d="M734.619,424.161s-.233,8.705-4.557,8.588c-1.231-.134-1.928,0-5.959-16.883l8.355-.936Z" transform="translate(-712.884 -389.93)" fill="#fff" stroke="#36393a" stroke-miterlimit="10" stroke-width="1"/>
    <path id="Path_676" data-name="Path 676" d="M748.34,421.255s-3.669,9.27-4.849,10.691a3.738,3.738,0,0,1-2.681,1.6c-.7-.058-2.986-2.065-3.863-5.512s-2.395-12.444-2.395-12.444l14.138.468Z" transform="translate(-714.978 -390.062)" fill="#fff" stroke="#36393a" stroke-miterlimit="10" stroke-width="1"/>
    <path id="Path_677" data-name="Path 677" d="M764.405,419.525s-1.869,7.3-2.687,9.464a7.051,7.051,0,0,1-3.1,3.973c-1.518,1.051-4.5,2.629-6.251,2.22s-2.479-2.369-2.746-3.389c-.314-1.2-2.571-14.138-2.045-16.008s3.972-3.8,3.972-3.8Z" transform="translate(-717.573 -389.34)" fill="#fff" stroke="#36393a" stroke-miterlimit="10" stroke-width="1"/>
    <path id="Path_678" data-name="Path 678" d="M784.54,417.424s-1.737,7.323-2.643,10.042-2.265,6.342-5.21,6.871-5.285-.377-5.738-2.643-3.926-11.93-3.775-13.289,2.364-3.774,3.723-4.755,4.2-2.72,6.7-2.644S784.54,417.424,784.54,417.424Z" transform="translate(-721.515 -389.143)" fill="#fff" stroke="#36393a" stroke-miterlimit="10" stroke-width="1"/>
    <path id="Path_679" data-name="Path 679" d="M834.1,416.749s-.473,6.565-1.447,8.9a8.542,8.542,0,0,1-5.588,4.983c-2.539.554-11.669.554-13.962-1.826a10.773,10.773,0,0,1-3.029-5.539c-.432-1.568-1.885-5.7-1.206-7.132s6.871-4,9.891-3.85S834.1,416.749,834.1,416.749Z" transform="translate(-729.836 -389.399)" fill="#fff" stroke="#36393a" stroke-miterlimit="10" stroke-width="1"/>
    <path id="Path_680" data-name="Path 680" d="M804.77,416.969s-1.1,4.961-2.239,8.533-2,7.072-5.5,7-4.93-1.643-5.573-4.358-1.857-5.644-2.286-7.287-.786-5.144-.214-5.93,7.858-3.071,7.858-3.071Z" transform="translate(-725.822 -389.314)" fill="#fff" stroke="#36393a" stroke-miterlimit="10" stroke-width="1"/>
    <path id="Path_681" data-name="Path 681" d="M863.2,414.953a47.669,47.669,0,0,1,.529,6.342,12.473,12.473,0,0,1-2.781,5.664c-2.045,2.332-8.428,3.734-12.882,2.978s-8.346-9.775-8.346-10.152,1.887-4.53,2.34-4.757a42.889,42.889,0,0,1,4.606-1.283C846.966,413.745,863.2,414.953,863.2,414.953Z" transform="translate(-736.054 -389.692)" fill="#fff" stroke="#36393a" stroke-miterlimit="10" stroke-width="1"/>
    <path id="Path_682" data-name="Path 682" d="M723.245,391.047s0-6.442-1.253-7.337-12.437,11.542-11.9,23c0,0,0,2.505,3.042,2.684a15.59,15.59,0,0,1,4.384.716Z" transform="translate(-710.073 -383.664)" fill="#fff" stroke="#36393a" stroke-miterlimit="10" stroke-width="1"/>
    <path id="Path_683" data-name="Path 683" d="M866.611,407.433s-.911-8.326-7.806-8.326-9.237,1.822-11.449,3.773-3.122,8.847-2.863,9.237,3.529,4.574,7.546,4.683c2.081.057,4.816-3.307,6.116-3.359,2.39-.1,1.537,3.064,4.812,2.839C865.326,416.118,867.262,412.507,866.611,407.433Z" transform="translate(-737.003 -386.759)" fill="#fff" stroke="#36393a" stroke-miterlimit="10" stroke-width="1"/>
    <path id="Path_684" data-name="Path 684" d="M817.671,404.59s4.26-7.284,7.062-8.087a11.5,11.5,0,0,1,9.843,2.058c3.4,2.774,5.01,10.289,3.669,14.5a5.984,5.984,0,0,1-5.906,4.474c-2.611-.632-2.949-3.873-4.369-4.076-2.763-.395-3.732,2.045-6.746,1.543-1.679-.28-6.243-5.34-5.617-6.683S817.671,404.59,817.671,404.59Z" transform="translate(-731.21 -386.167)" fill="#fff" stroke="#36393a" stroke-miterlimit="10" stroke-width="1"/>
    <path id="Path_685" data-name="Path 685" d="M812.121,401.688s1.969,8.947.716,10.647-3.221,3.4-5.548,3.222a15.914,15.914,0,0,1-6.417-2.645c-.867-.728-2.62-2.635-2.71-4.513s1.253-4.385,1.879-5.816,2.241-8.022,7.069-8.232C811.227,394.172,812.121,401.688,812.121,401.688Z" transform="translate(-727.725 -385.805)" fill="#fff" stroke="#36393a" stroke-miterlimit="10" stroke-width="1"/>
    <path id="Path_686" data-name="Path 686" d="M792.986,399.848s2.148,9.485-.179,11.006-6.621,3.937-8.142,3.669-5.727-5.368-6.8-6.084a2.087,2.087,0,0,1-1.073-2.058c0-.626,2.774-5.368,3.489-8.232s2.863-7.964,7.516-7.606S792.986,399.848,792.986,399.848Z" transform="translate(-723.443 -385.039)" fill="#fff" stroke="#36393a" stroke-miterlimit="10" stroke-width="1"/>
    <path id="Path_687" data-name="Path 687" d="M734.035,401.124s-.215-7.42-.537-9.394c-.446-2.739-1.969-6.354-3.848-6.442s-6.809,3.919-13.421,20.937c0,0-1.789,4.116,1.163,4.742,2.256.478,6.5.957,8.373,1.156a6.421,6.421,0,0,0,2.368-.181c1.287-.351,3.063-1.123,3.665-2.765C732.782,406.494,734.035,401.124,734.035,401.124Z" transform="translate(-711.199 -383.989)" fill="#fff" stroke="#36393a" stroke-miterlimit="10" stroke-width="1"/>
    <path id="Path_688" data-name="Path 688" d="M749.494,394.364s-2.237-8.5-5.906-7.963c-1.969.447-3.4,3.847-4.563,7.427s-5.995,14.585-5.548,16.643,3.579,2.236,3.579,2.236l5.24.443a6.366,6.366,0,0,0,2.645-.336,6.292,6.292,0,0,0,3.39-2.344,35.063,35.063,0,0,0,2.505-5.727A35.013,35.013,0,0,0,749.494,394.364Z" transform="translate(-714.757 -384.208)" fill="#fff" stroke="#36393a" stroke-miterlimit="10" stroke-width="1"/>
    <path id="Path_689" data-name="Path 689" d="M771.571,393.685a45.563,45.563,0,0,0-.179,6.532c.16,1.065,1.969,4.742.089,7.158s-4.922,7.337-11.1,6.532a8.643,8.643,0,0,1-7.874-7.606c-.089-1.789,1.391-8.438,2.6-11.364,1.252-3.042,5.548-9.484,11.006-8.768S771.571,393.685,771.571,393.685Z" transform="translate(-718.577 -384.155)" fill="#fff" stroke="#36393a" stroke-miterlimit="10" stroke-width="1"/>
  </g>
</svg>
