<svg xmlns="http://www.w3.org/2000/svg" width="134.061" height="47.705" viewBox="0 0 134.061 47.705">
  <g id="Records_icon_5" data-name="Records icon 5" transform="translate(0.52 0.5)">
    <path id="Path_634" data-name="Path 634" d="M945.658,407.5s-2.4,10.86.215,12.492a3.915,3.915,0,0,0,3.569.143" transform="translate(-942.094 -385.569)" fill="#fff" stroke="#221f1f" stroke-miterlimit="10" stroke-width="1"/>
    <path id="Path_635" data-name="Path 635" d="M950.493,408.206s-2.284,13.205-.071,15.347c2.075,2.008,6.5-1.856,6.5-1.856" transform="translate(-942.503 -385.628)" fill="#fff" stroke="#221f1f" stroke-miterlimit="10" stroke-width="1"/>
    <path id="Path_636" data-name="Path 636" d="M946.959,391.74a6.417,6.417,0,0,0-3.238-1.272c-1.578,0-1.713,3.021-1.811,4.2a42.708,42.708,0,0,0,.5,8.209c.29,1.78.848,4.085,2.968,4.085a2.667,2.667,0,0,0,2.62-1.5" transform="translate(-941.856 -384.119)" fill="#fff" stroke="#221f1f" stroke-miterlimit="10" stroke-width="1"/>
    <path id="Path_637" data-name="Path 637" d="M955.109,392.972s-3.888-4.32-5.467-4.32-2.326,2.779-2.526,3.947a77.616,77.616,0,0,0,.361,9.97c.237,1.789,1.132,4.709,3.6,4.709a4.979,4.979,0,0,0,4.257-2.358" transform="translate(-942.298 -383.964)" fill="#fff" stroke="#221f1f" stroke-miterlimit="10" stroke-width="1"/>
    <path id="Path_638" data-name="Path 638" d="M957.95,410.391s-1.642,11.92.785,14.276,8.78-4.283,8.78-4.283" transform="translate(-943.18 -385.814)" fill="#fff" stroke="#221f1f" stroke-miterlimit="10" stroke-width="1"/>
    <path id="Path_639" data-name="Path 639" d="M967.7,394.3s-6.051-6.783-8.363-6.783-3.409,4.071-3.7,5.781a63.9,63.9,0,0,0,.193,11.1c.347,2.621,1.657,6.9,5.28,6.9s6.744-3.778,7.476-4.895" transform="translate(-943.014 -383.868)" fill="#fff" stroke="#221f1f" stroke-miterlimit="10" stroke-width="1"/>
    <path id="Path_640" data-name="Path 640" d="M972,408.908s-2.927,2.07-3.569,7.139-.642,12.92,4.283,12.92,8.994-5.354,8.994-5.354" transform="translate(-944.092 -385.688)" fill="#fff" stroke="#221f1f" stroke-miterlimit="10" stroke-width="1"/>
    <path id="Path_641" data-name="Path 641" d="M982.572,411.45s-.275,8.766.357,12.278c.642,3.569,3.212,7.138,6.21,7.138s6.315-3.609,6.71-7c.5-4.283.357-12.92.357-12.92S990.638,409.094,982.572,411.45Z" transform="translate(-945.316 -385.803)" fill="#fff" stroke="#221f1f" stroke-miterlimit="10" stroke-width="1"/>
    <path id="Path_642" data-name="Path 642" d="M985.746,394.246c-.886-1.5-7.553-8.286-11.638-8.286s-5.01,7.708-5.01,7.708-.694,7.323-.038,11.1a6.582,6.582,0,0,0,6.127,5.742c2.736.231,7.746.578,9.558.039s2.428-2.814,2.428-2.814" transform="translate(-944.147 -383.735)" fill="#fff" stroke="#221f1f" stroke-miterlimit="10" stroke-width="1"/>
    <path id="Path_643" data-name="Path 643" d="M996.778,413.337s.357,8.637,1.57,11.991,4.141,7.353,7.139,7.353,5.21-4.212,6.353-7.424,1.284-11.92,1.284-11.92S1004.844,410.981,996.778,413.337Z" transform="translate(-946.53 -385.976)" fill="#fff" stroke="#221f1f" stroke-miterlimit="10" stroke-width="1"/>
    <path id="Path_644" data-name="Path 644" d="M987.138,396.457a10.151,10.151,0,0,1,1.508-5.271c1.911-3.088,5.687-7.584,11.465-7.584,8.8,0,11.139,9.71,11.732,12.383.628,2.836,1.587,12.808-1.194,14.726-2.221,1.532-14.162,1.929-18.806-.434s-4.733-6.61-4.733-8.484C987.11,400.715,987.126,398.307,987.138,396.457Z" transform="translate(-945.708 -383.534)" fill="#fff" stroke="#221f1f" stroke-miterlimit="10" stroke-width="1"/>
    <path id="Path_645" data-name="Path 645" d="M1082.93,407.5s2.4,10.86-.214,12.492a3.915,3.915,0,0,1-3.569.143" transform="translate(-953.541 -385.569)" fill="#fff" stroke="#221f1f" stroke-miterlimit="10" stroke-width="1"/>
    <path id="Path_646" data-name="Path 646" d="M1077.847,408.206s2.284,13.205.071,15.347c-2.075,2.008-6.5-1.856-6.5-1.856" transform="translate(-952.884 -385.628)" fill="#fff" stroke="#221f1f" stroke-miterlimit="10" stroke-width="1"/>
    <path id="Path_647" data-name="Path 647" d="M1081.577,391.666a6.417,6.417,0,0,1,3.237-1.272c1.578,0,1.713,3.021,1.812,4.2a42.62,42.62,0,0,1-.5,8.208c-.289,1.781-.847,4.085-2.967,4.085a2.67,2.67,0,0,1-2.621-1.5" transform="translate(-953.66 -384.112)" fill="#fff" stroke="#221f1f" stroke-miterlimit="10" stroke-width="1"/>
    <path id="Path_648" data-name="Path 648" d="M1073.227,392.9s3.887-4.32,5.466-4.32,2.328,2.779,2.526,3.946a77.675,77.675,0,0,1-.361,9.97c-.236,1.789-1.131,4.709-3.6,4.709a4.982,4.982,0,0,1-4.258-2.359" transform="translate(-953.018 -383.958)" fill="#fff" stroke="#221f1f" stroke-miterlimit="10" stroke-width="1"/>
    <path id="Path_649" data-name="Path 649" d="M1070.143,410.391s1.642,11.92-.785,14.276-8.78-4.283-8.78-4.283" transform="translate(-951.961 -385.814)" fill="#fff" stroke="#221f1f" stroke-miterlimit="10" stroke-width="1"/>
    <path id="Path_650" data-name="Path 650" d="M1060.193,394.228s6.05-6.783,8.363-6.783,3.408,4.071,3.7,5.781a64.015,64.015,0,0,1-.192,11.1c-.347,2.62-1.657,6.9-5.28,6.9s-6.744-3.777-7.476-4.895" transform="translate(-951.853 -383.861)" fill="#fff" stroke="#221f1f" stroke-miterlimit="10" stroke-width="1"/>
    <path id="Path_651" data-name="Path 651" d="M1055.774,408.908s2.927,2.07,3.569,7.139.642,12.92-4.283,12.92-8.994-5.354-8.994-5.354" transform="translate(-950.726 -385.688)" fill="#fff" stroke="#221f1f" stroke-miterlimit="10" stroke-width="1"/>
    <path id="Path_652" data-name="Path 652" d="M1045.186,411.45s.275,8.766-.357,12.278c-.642,3.569-3.212,7.138-6.21,7.138s-6.315-3.609-6.71-7c-.5-4.283-.357-12.92-.357-12.92S1037.12,409.094,1045.186,411.45Z" transform="translate(-949.489 -385.803)" fill="#fff" stroke="#221f1f" stroke-miterlimit="10" stroke-width="1"/>
    <path id="Path_653" data-name="Path 653" d="M1041.649,394.172c.887-1.5,7.553-8.285,11.639-8.285s5.01,7.708,5.01,7.708.693,7.322.038,11.1a6.584,6.584,0,0,1-6.128,5.743c-2.736.231-7.746.578-9.558.038s-2.427-2.813-2.427-2.813" transform="translate(-950.228 -383.729)" fill="#fff" stroke="#221f1f" stroke-miterlimit="10" stroke-width="1"/>
    <path id="Path_654" data-name="Path 654" d="M1030.735,413.337s-.357,8.637-1.57,11.991-4.141,7.353-7.139,7.353-5.21-4.212-6.353-7.424-1.285-11.92-1.285-11.92S1022.67,410.981,1030.735,413.337Z" transform="translate(-948.029 -385.976)" fill="#fff" stroke="#221f1f" stroke-miterlimit="10" stroke-width="1"/>
    <path id="Path_655" data-name="Path 655" d="M1039.646,396.383a10.135,10.135,0,0,0-1.507-5.27c-1.912-3.089-5.687-7.585-11.465-7.585-8.8,0-11.332,9.674-11.732,12.384-.429,2.9-.38,13.851,1.194,14.725,2.359,1.311,14.163,1.929,18.807-.434s4.733-6.61,4.733-8.484C1039.676,400.642,1039.66,398.234,1039.646,396.383Z" transform="translate(-948.057 -383.528)" fill="#fff" stroke="#221f1f" stroke-miterlimit="10" stroke-width="1"/>
  </g>
</svg>
