<svg xmlns="http://www.w3.org/2000/svg" width="85.291" height="127.874" viewBox="0 0 85.291 127.874">
  <g id="Records_icon_2" data-name="Records icon 2" transform="translate(0.5 0.003)">
    <path id="Path_627" data-name="Path 627" d="M1449.248,174.592s-.028,21.848-.028,35.131c0,30.947-26,56.035-43.077,56.035s-41.01-25.088-41.01-56.035c0-13.12-.176-35.174-.176-35.174" transform="translate(-1364.957 -174.549)" fill="none" stroke="#ffffff" stroke-miterlimit="10" stroke-width="1"/>
    <path id="Path_628" data-name="Path 628" d="M1469.072,356.076c-3.583,1.17-14.563-.256-22.01-.256s-18.734,1.456-22.026.3a24.357,24.357,0,0,0,21.786,12.84A25.484,25.484,0,0,0,1469.072,356.076Z" transform="translate(-1405.303 -296.281)" fill="none" stroke="#ffffff" stroke-linecap="round" stroke-linejoin="round" stroke-width="1"/>
    <path id="Path_629" data-name="Path 629" d="M1485.254,411.2a7.425,7.425,0,0,0,6.391,0" transform="translate(-1445.742 -333.467)" fill="none" stroke="#ffffff" stroke-miterlimit="10" stroke-width="1"/>
    <line id="Line_16" data-name="Line 16" x2="3.533" y2="0.623" transform="translate(36.35 52.746)" fill="none" stroke="#ffffff" stroke-linecap="round" stroke-linejoin="round" stroke-width="1"/>
    <line id="Line_17" data-name="Line 17" x1="3.533" y2="0.623" transform="translate(44.299 52.746)" fill="none" stroke="#ffffff" stroke-linecap="round" stroke-linejoin="round" stroke-width="1"/>
    <g id="Group_261" data-name="Group 261" transform="translate(8.229 82.283)">
      <path id="Path_630" data-name="Path 630" d="M1390.012,469.274l5.065-5.311a29.025,29.025,0,0,0,8.02-20.03V425.063" transform="translate(-1390.012 -425.063)" fill="none" stroke="#ffffff" stroke-miterlimit="10" stroke-width="1"/>
      <path id="Path_631" data-name="Path 631" d="M1552.025,425.063v18.869a31.576,31.576,0,0,0,6.927,20.252c2.231,2.752,7.815,6.037,7.815,6.037" transform="translate(-1498.811 -425.063)" fill="none" stroke="#ffffff" stroke-miterlimit="10" stroke-width="1"/>
    </g>
    <line id="Line_18" data-name="Line 18" x2="6.491" transform="translate(23.954 65.123)" fill="none" stroke="#ffffff" stroke-linecap="round" stroke-linejoin="round" stroke-width="1"/>
    <line id="Line_19" data-name="Line 19" x2="23.172" transform="translate(35.47 65.123)" fill="none" stroke="#ffffff" stroke-linecap="round" stroke-linejoin="round" stroke-width="1"/>
    <path id="Path_632" data-name="Path 632" d="M1415.385,346.111a7.428,7.428,0,0,0-2.33,5.952" transform="translate(-1397.251 -289.761)" fill="none" stroke="#ffffff" stroke-linecap="round" stroke-linejoin="round" stroke-width="1"/>
    <path id="Path_633" data-name="Path 633" d="M1563.705,346.111a7.428,7.428,0,0,1,2.33,5.952" transform="translate(-1498.425 -289.761)" fill="none" stroke="#ffffff" stroke-linecap="round" stroke-linejoin="round" stroke-width="1"/>
  </g>
</svg>
