<svg xmlns="http://www.w3.org/2000/svg" width="125.918" height="91.81" viewBox="0 0 125.918 91.81">
  <g id="upper_arch" data-name="upper arch" transform="translate(0.62 0.5)">
    <path id="Path_399" data-name="Path 399" d="M478.354,894.905c1.067,1.3,3.976,1.04,6.116.722a31.046,31.046,0,0,0,8.085-3.134c.316-.216,1.737-1.419,1.667-2.532a32.838,32.838,0,0,0-1.2-7.08c-.3-.371-4.237-1.908-6.711-2.57-1.076-.286-2.534.869-2.806,1.142a30.86,30.86,0,0,0-4.659,7.314c-.734,2.039-1.63,4.75-.49,6.139" transform="translate(-392.707 -867.555)" fill="none" stroke="#ffffff" stroke-miterlimit="10" stroke-width="1"/>
    <path id="Path_400" data-name="Path 400" d="M496.745,930.813a5.855,5.855,0,0,1,.639-6.307c1.051-1.169,8.37-5.994,9.966-6.121,1.828-.151,4.664,1.366,5.922,3.77s.892,5.6-.27,7.016c-1.014,1.239-9.148,4.509-10.706,4.711a5.857,5.857,0,0,1-5.551-3.068" transform="translate(-405.072 -893.313)" fill="none" stroke="#ffffff" stroke-miterlimit="10" stroke-width="1"/>
    <path id="Path_401" data-name="Path 401" d="M512.5,967.509a5.855,5.855,0,0,1,1.349-6.2c1.177-1.039,9-5,10.6-4.949,1.828.057,4.479,1.885,5.455,4.416s.25,5.667-1.067,6.939c-1.142,1.117-9.6,3.444-11.169,3.466a5.853,5.853,0,0,1-5.165-3.676" transform="translate(-415.899 -918.99)" fill="none" stroke="#ffffff" stroke-miterlimit="10" stroke-width="1"/>
    <path id="Path_402" data-name="Path 402" d="M413.989,859.737c-1.935-.4-4.061-5.016-4.479-8.391a59.568,59.568,0,0,1-.514-6.709c-.022-1.48.759-3.6,2.532-3.59a35.829,35.829,0,0,1,6.133.806,36.89,36.89,0,0,1,5.952,1.668c1.64.692,1.519,2.949.918,4.3a59.294,59.294,0,0,1-3.117,5.963c-1.717,2.942-5.488,6.346-7.423,5.951" transform="translate(-346.193 -841.047)" fill="none" stroke="#ffffff" stroke-miterlimit="10" stroke-width="1"/>
    <path id="Path_403" data-name="Path 403" d="M452.368,873.15c-1.286-.82-1.268-5.184-.411-8.087a59.8,59.8,0,0,1,1.923-5.691c.5-1.23,1.8-2.792,3.1-2.333a23.85,23.85,0,0,1,4.236,2.228,24.17,24.17,0,0,1,3.813,2.9c.971.988.1,2.827-.8,3.8-1.517,1.624-3.073,3.023-4.347,4.146-2.274,2-6.222,3.865-7.513,3.041" transform="translate(-374.821 -851.8)" fill="none" stroke="#ffffff" stroke-miterlimit="10" stroke-width="1"/>
    <path id="Path_404" data-name="Path 404" d="M524.625,1010c-1.1-1.35-2.381-4.858-.872-7.108,2.205-3.3,5.232-3.884,7.644-4.659s6.648-1.374,8.638.1a292.508,292.508,0,0,1,3.71,14.522c-1.042,2.245-5.045,3.749-7.535,4.227s-5.426,1.414-8.941-.42c-2.4-1.253-2.959-4.947-2.645-6.659" transform="translate(-423.293 -946.744)" fill="none" stroke="#ffffff" stroke-miterlimit="10" stroke-width="1"/>
    <path id="Path_405" data-name="Path 405" d="M536.977,1071.528c-1-1.424-2.033-5.014-.373-7.155,2.431-3.133,5.492-3.508,7.954-4.112s6.727-.905,8.609.7a294.221,294.221,0,0,1,2.684,14.748c-1.2,2.165-5.294,3.387-7.811,3.69s-5.511,1.028-8.891-1.045c-2.308-1.418-2.6-5.14-2.17-6.826" transform="translate(-431.852 -988.887)" fill="none" stroke="#ffffff" stroke-miterlimit="10" stroke-width="1"/>
    <path id="Path_407" data-name="Path 407" d="M302.545,894.905c-1.067,1.3-3.976,1.04-6.115.722a31.059,31.059,0,0,1-8.085-3.134c-.317-.216-1.737-1.419-1.667-2.532a32.8,32.8,0,0,1,1.2-7.08c.3-.371,4.237-1.908,6.71-2.57,1.076-.286,2.535.869,2.807,1.142a30.95,30.95,0,0,1,4.659,7.314c.734,2.039,1.631,4.75.489,6.139" transform="translate(-263.515 -867.555)" fill="none" stroke="#ffffff" stroke-miterlimit="10" stroke-width="1"/>
    <path id="Path_408" data-name="Path 408" d="M280.947,930.813a5.855,5.855,0,0,0-.64-6.307c-1.051-1.169-8.37-5.994-9.966-6.121-1.828-.151-4.663,1.366-5.922,3.77s-.892,5.6.27,7.016c1.013,1.239,9.148,4.509,10.706,4.711a5.858,5.858,0,0,0,5.551-3.068" transform="translate(-247.94 -893.313)" fill="none" stroke="#ffffff" stroke-miterlimit="10" stroke-width="1"/>
    <path id="Path_409" data-name="Path 409" d="M264.628,967.509a5.854,5.854,0,0,0-1.349-6.2c-1.177-1.039-9-5-10.6-4.949-1.828.057-4.479,1.885-5.455,4.416s-.249,5.667,1.067,6.939c1.142,1.117,9.6,3.444,11.17,3.466a5.852,5.852,0,0,0,5.165-3.676" transform="translate(-236.547 -918.99)" fill="none" stroke="#ffffff" stroke-miterlimit="10" stroke-width="1"/>
    <path id="Path_410" data-name="Path 410" d="M367.892,859.737c1.935-.4,4.061-5.016,4.479-8.391a59.425,59.425,0,0,0,.514-6.709c.022-1.48-.758-3.6-2.532-3.59a35.833,35.833,0,0,0-6.133.806,36.908,36.908,0,0,0-5.952,1.668c-1.639.692-1.519,2.949-.918,4.3a59.16,59.16,0,0,0,3.116,5.963c1.717,2.942,5.488,6.346,7.425,5.951" transform="translate(-311.009 -841.047)" fill="none" stroke="#ffffff" stroke-miterlimit="10" stroke-width="1"/>
    <path id="Path_411" data-name="Path 411" d="M333.342,873.15c1.287-.82,1.268-5.184.411-8.087a59.913,59.913,0,0,0-1.923-5.691c-.5-1.23-1.8-2.792-3.1-2.333a23.837,23.837,0,0,0-4.236,2.228,24.116,24.116,0,0,0-3.813,2.9c-.971.988-.1,2.827.8,3.8,1.517,1.624,3.074,3.023,4.347,4.146,2.275,2,6.222,3.865,7.513,3.041" transform="translate(-286.209 -851.8)" fill="none" stroke="#ffffff" stroke-miterlimit="10" stroke-width="1"/>
    <path id="Path_412" data-name="Path 412" d="M246.323,1010c1.1-1.35,2.381-4.858.872-7.108-2.205-3.3-5.232-3.884-7.644-4.659s-6.647-1.374-8.637.1a293.44,293.44,0,0,0-3.711,14.522c1.042,2.245,5.046,3.749,7.535,4.227s5.426,1.414,8.942-.42c2.4-1.253,2.958-4.947,2.644-6.659" transform="translate(-222.976 -946.744)" fill="none" stroke="#ffffff" stroke-miterlimit="10" stroke-width="1"/>
    <path id="Path_413" data-name="Path 413" d="M234.767,1071.528c1-1.424,2.034-5.014.374-7.155-2.432-3.133-5.492-3.508-7.954-4.112s-6.728-.905-8.61.7a294.775,294.775,0,0,0-2.684,14.748c1.2,2.165,5.294,3.387,7.811,3.69s5.511,1.028,8.89-1.045c2.309-1.418,2.6-5.14,2.173-6.826" transform="translate(-215.215 -988.887)" fill="none" stroke="#ffffff" stroke-miterlimit="10" stroke-width="1"/>
  </g>
</svg>
