<svg xmlns="http://www.w3.org/2000/svg" width="125.917" height="90.494" viewBox="0 0 125.917 90.494">
  <g id="lower_arch" data-name="lower arch" transform="translate(0.63 0.418)">
    <path id="Path_415" data-name="Path 415" d="M1520.42,1071.334c-1.232.545-1.893,4.127-1.612,6.588a47.157,47.157,0,0,0,.766,4.85c.233,1.056,1.109,2.464,2.3,2.217a22.784,22.784,0,0,0,3.982-1.415,23.134,23.134,0,0,0,3.725-2c.985-.714.525-2.306-.1-3.19a47.008,47.008,0,0,0-3.084-3.82c-1.639-1.859-4.738-3.774-5.974-3.225" transform="translate(-1445.801 -997.556)" fill="none" stroke="#ffffff" stroke-miterlimit="10" stroke-width="1"/>
    <path id="Path_416" data-name="Path 416" d="M1547.235,1050.322c1.283-1.019,3.847-.365,5.7.229a25.158,25.158,0,0,1,6.517,3.984c.234.241,1.212,1.529.875,2.521a33.108,33.108,0,0,1-2.847,6.2,32.757,32.757,0,0,1-6.691,1.347c-1.042.1-2.07-1.146-2.248-1.432a24.9,24.9,0,0,1-2.387-7.257c-.155-1.942-.292-4.511,1.082-5.6" transform="translate(-1464.262 -983.057)" fill="none" stroke="#ffffff" stroke-miterlimit="10" stroke-width="1"/>
    <path id="Path_417" data-name="Path 417" d="M1571.324,1020.94c-1.393,2.281-1.3,4.905-.49,6.151.706,1.093,6.184,5.465,7.533,5.514,1.541.058,4.224-1.571,5.7-3.985s1.687-5.535.923-6.864c-.664-1.167-7.1-3.972-8.4-4.093-1.488-.138-3.871,1-5.263,3.277" transform="translate(-1480.611 -961.334)" fill="none" stroke="#ffffff" stroke-miterlimit="10" stroke-width="1"/>
    <path id="Path_418" data-name="Path 418" d="M1588.025,981.786c-.987,2.782-.292,5.6.875,6.767,1.014,1.02,7.94,4.5,9.406,4.241,1.68-.292,4.211-2.659,5.254-5.609s.562-6.372-.566-7.634c-.985-1.108-8.585-2.676-10.024-2.508-1.641.194-3.959,1.963-4.943,4.746" transform="translate(-1492.31 -933.877)" fill="none" stroke="#ffffff" stroke-miterlimit="10" stroke-width="1"/>
    <path id="Path_419" data-name="Path 419" d="M1491.788,1073.845c-2.358.233-3.75,9.75-3.888,11.763-.081,1.2.311,3.007,1.436,3.181a17.68,17.68,0,0,0,3.929-.022,18.25,18.25,0,0,0,3.85-.744c1.073-.391,1.105-2.241.788-3.405-.525-1.95-3.757-11.007-6.118-10.773" transform="translate(-1424.946 -999.312)" fill="none" stroke="#ffffff" stroke-miterlimit="10" stroke-width="1"/>
    <path id="Path_420" data-name="Path 420" d="M1592.942,918.893c-1.221,1.458-2.684,5.276-1.069,7.759,2.359,3.643,5.659,4.333,8.289,5.22s7.249,1.61,9.447.036c2.521-1.808,3.078-5.116,2.249-7.887,2.114-1.973,3.308-5.109,2.042-7.942-1.1-2.473-5.456-4.18-8.171-4.746s-5.911-1.633-9.789.318c-2.647,1.33-3.314,5.362-3,7.239" transform="translate(-1494.747 -888.929)" fill="none" stroke="#ffffff" stroke-miterlimit="10" stroke-width="1"/>
    <path id="Path_421" data-name="Path 421" d="M1609.446,852.9c-1.094,1.559-2.227,5.484-.408,7.826,2.659,3.429,6.009,3.84,8.7,4.5s7.36.992,9.419-.764c2.358-2.013,2.633-5.358,1.575-8.051,1.94-2.146,2.861-5.371,1.366-8.086-1.307-2.369-5.792-3.7-8.544-4.037s-6.029-1.128-9.729,1.144c-2.523,1.551-2.848,5.625-2.374,7.467" transform="translate(-1506.183 -843.881)" fill="none" stroke="#ffffff" stroke-miterlimit="10" stroke-width="1"/>
    <path id="Path_423" data-name="Path 423" d="M1427.769,1071.334c1.233.545,1.894,4.127,1.612,6.588a46.858,46.858,0,0,1-.766,4.85c-.233,1.056-1.108,2.464-2.3,2.217a22.782,22.782,0,0,1-3.981-1.415,23.122,23.122,0,0,1-3.725-2c-.985-.714-.525-2.306.1-3.19a47.423,47.423,0,0,1,3.084-3.82c1.639-1.859,4.738-3.774,5.975-3.225" transform="translate(-1377.733 -997.556)" fill="none" stroke="#ffffff" stroke-miterlimit="10" stroke-width="1"/>
    <path id="Path_424" data-name="Path 424" d="M1394.845,1050.322c-1.283-1.019-3.846-.365-5.7.229a25.132,25.132,0,0,0-6.516,3.984c-.233.241-1.212,1.529-.875,2.521a33.106,33.106,0,0,0,2.846,6.2,32.762,32.762,0,0,0,6.692,1.347c1.043.1,2.07-1.146,2.248-1.432a24.945,24.945,0,0,0,2.386-7.257c.155-1.942.292-4.511-1.083-5.6" transform="translate(-1353.163 -983.057)" fill="none" stroke="#ffffff" stroke-miterlimit="10" stroke-width="1"/>
    <path id="Path_425" data-name="Path 425" d="M1369,1020.94c1.393,2.281,1.3,4.905.49,6.151-.707,1.093-6.184,5.465-7.533,5.514-1.542.058-4.224-1.571-5.7-3.985s-1.687-5.535-.924-6.864c.665-1.167,7.1-3.972,8.4-4.093,1.489-.138,3.871,1,5.262,3.277" transform="translate(-1335.059 -961.334)" fill="none" stroke="#ffffff" stroke-miterlimit="10" stroke-width="1"/>
    <path id="Path_426" data-name="Path 426" d="M1349.368,981.786c.987,2.782.292,5.6-.875,6.767-1.014,1.02-7.941,4.5-9.406,4.241-1.681-.292-4.211-2.659-5.255-5.609s-.562-6.372.566-7.634c.985-1.108,8.585-2.676,10.024-2.508,1.641.194,3.959,1.963,4.944,4.746" transform="translate(-1320.427 -933.877)" fill="none" stroke="#ffffff" stroke-miterlimit="10" stroke-width="1"/>
    <path id="Path_427" data-name="Path 427" d="M1458.943,1073.845c2.358.233,3.75,9.75,3.889,11.763.081,1.2-.311,3.007-1.436,3.181a17.681,17.681,0,0,1-3.929-.022,18.254,18.254,0,0,1-3.85-.744c-1.073-.391-1.105-2.241-.788-3.405.525-1.95,3.757-11.007,6.117-10.773" transform="translate(-1401.129 -999.312)" fill="none" stroke="#ffffff" stroke-miterlimit="10" stroke-width="1"/>
    <path id="Path_428" data-name="Path 428" d="M1330.535,918.893c1.221,1.458,2.683,5.276,1.07,7.759-2.36,3.643-5.659,4.333-8.289,5.22s-7.249,1.61-9.448.036c-2.521-1.808-3.078-5.116-2.249-7.887-2.113-1.973-3.308-5.109-2.042-7.942,1.1-2.473,5.455-4.18,8.171-4.746s5.911-1.633,9.788.318c2.648,1.33,3.314,5.362,3,7.239" transform="translate(-1304.073 -888.929)" fill="none" stroke="#ffffff" stroke-miterlimit="10" stroke-width="1"/>
    <path id="Path_429" data-name="Path 429" d="M1315.068,852.9c1.093,1.559,2.226,5.484.408,7.826-2.659,3.429-6.009,3.84-8.7,4.5s-7.36.992-9.419-.764c-2.358-2.013-2.633-5.358-1.575-8.051-1.94-2.146-2.859-5.371-1.365-8.086,1.307-2.369,5.791-3.7,8.544-4.037s6.029-1.128,9.729,1.144c2.523,1.551,2.848,5.625,2.374,7.467" transform="translate(-1293.675 -843.881)" fill="none" stroke="#ffffff" stroke-miterlimit="10" stroke-width="1"/>
  </g>
</svg>
